<?xml version="1.0" standalone="no"?><!DOCTYPE svg PUBLIC "-//W3C//DTD SVG 1.1//EN" "http://www.w3.org/Graphics/SVG/1.1/DTD/svg11.dtd"><svg t="1742883589512" class="icon" viewBox="0 0 1024 1024" version="1.1" xmlns="http://www.w3.org/2000/svg" p-id="8462" data-spm-anchor-id="a313x.search_index.0.i4.3d3b3a81L6PlsC" width="1024" height="1024" xmlns:xlink="http://www.w3.org/1999/xlink"><path d="M949.2 327.3c-23.9-56.5-58.1-107.3-101.7-150.8S753.2 98.7 696.7 74.8C638.2 50 576.1 37.5 512 37.5S385.8 50 327.3 74.8C270.8 98.7 220 132.9 176.5 176.5 132.9 220 98.7 270.8 74.8 327.3 50 385.8 37.5 447.9 37.5 512S50 638.2 74.8 696.7c23.9 56.5 58.1 107.2 101.7 150.8 43.6 43.6 94.3 77.8 150.8 101.7 58.5 24.7 120.7 37.3 184.7 37.3 64.1 0 126.2-12.5 184.7-37.3 56.5-23.9 107.2-58.1 150.8-101.7 43.6-43.6 77.8-94.3 101.7-150.8 24.7-58.5 37.3-120.7 37.3-184.7 0-64.1-12.5-126.2-37.3-184.7zM512 958.5C265.8 958.5 65.5 758.2 65.5 512S265.8 65.5 512 65.5 958.5 265.8 958.5 512 758.2 958.5 512 958.5z" fill="#FF4040" p-id="8463"></path><path d="M411 504c15.7 15.1 25.9 45 22.6 66.6l-3.5 22.9c-3.3 21.5 9.7 30.8 29 20.6l20.1-10.6c19.3-10.2 50.8-10.3 70.1-0.3l21.5 11.2c19.3 10.1 31.8 0.8 27.8-20.6l-4.4-23.4c-4-21.4 5.3-51.5 20.8-66.8l16-15.9c15.5-15.3 10.5-30.5-11.1-33.6l-23.5-3.4c-21.6-3.1-47.3-21.6-57.2-41l-11-21.5c-9.9-19.4-25.7-19.2-35.1 0.5l-9.8 20.5c-9.4 19.7-34.7 38.4-56.2 41.5l-23 3.3c-21.6 3.1-26.3 18.1-10.6 33.1L411 504zM407.5 803.7l-27.6-38.8h12.6l14.3 21.3c2.6 3.6 4.8 6.9 8 11.5h0.7c2.7-4.6 4.7-7.9 7.1-11.5l14.3-21.3h11.8l-27.6 39.2 29.5 41h-12.5l-15.4-22.3c-2.6-3.9-5.5-8-8.8-12.9h-0.5c-3 4.9-5.6 9-8.2 12.9L390 845.1h-12l29.5-41.4zM498.4 803.7l-27.6-38.8h12.6l14.3 21.3c2.6 3.6 4.8 6.9 8 11.5h0.7c2.7-4.6 4.7-7.9 7.1-11.5l14.3-21.3h11.8L512 804.1l29.5 41H529l-15.4-22.3c-2.6-3.9-5.5-8-8.8-12.9h-0.5c-3 4.9-5.6 9-8.2 12.9l-15.2 22.3H469l29.4-41.4zM589.2 803.7l-27.6-38.8h12.6l14.3 21.3c2.6 3.6 4.8 6.9 7.9 11.5h0.7c2.7-4.6 4.7-7.9 7.1-11.5l14.3-21.3h11.8l-27.6 39.2 29.5 41h-12.5l-15.4-22.3c-2.6-3.9-5.5-8-8.8-12.9h-0.5c-3 4.9-5.6 9-8.2 12.9l-15.2 22.3h-11.9l29.5-41.4zM232.4 334.8L192 324.5l8.4-7.2 21.6 6.1c3.8 0.9 7.1 1.9 11.8 3.2l0.5-0.4c-0.8-4.6-1.4-7.9-1.8-11.7l-2.5-22.3 7.9-6.7 3.9 41.8 42.9 10.6-8.3 7.1-22.9-6.2c-4-1.2-8.2-2.2-13.2-3.7l-0.4 0.3c0.8 5 1.3 9.2 1.8 13.3l2.5 23.6-8 6.8-3.8-44.3zM324.6 258.5L286 242.9l9.3-6 20.6 9c3.6 1.4 6.8 2.8 11.3 4.7l0.5-0.3c-0.2-4.7-0.3-8-0.2-11.9l0.5-22.4 8.7-5.6-1.8 42 41.1 16.3-9.2 5.9-21.9-9.2c-3.8-1.7-7.8-3.3-12.6-5.4l-0.4 0.3c0.1 5.1 0.1 9.3 0 13.4l-0.7 23.7-8.8 5.6 2.2-44.5zM678.5 287.9l-8.8-5.6-0.7-23.7c-0.1-4.1-0.1-8.4 0-13.4l-0.4-0.3c-4.8 2.1-8.8 3.7-12.6 5.4l-21.9 9.2-9.2-5.9 41.1-16.3-1.8-42 8.7 5.6 0.5 22.4c0.1 3.8 0 7.2-0.2 11.9l0.5 0.3c4.5-1.9 7.7-3.3 11.3-4.7l20.6-9 9.3 6-38.7 15.6 2.3 44.5zM431.7 210.1l-27.3-31.5 11-1.1 14.2 17.3c2.6 2.9 4.8 5.6 7.9 9.4l0.6-0.1c2-4.2 3.4-7.3 5.2-10.6l10.6-19.8 10.3-1-20.7 36.6 29.2 33.2-10.9 1.1-15.3-18.2c-2.6-3.2-5.5-6.5-8.8-10.5h-0.5c-2.2 4.6-4.1 8.3-6.1 12l-11.4 20.8-10.4 1 22.4-38.6z" fill="#FF4040" p-id="8464"></path><path d="M584.9 248.7l-10.4-1-11.4-20.8c-1.9-3.7-3.9-7.4-6.1-12h-0.5c-3.3 4-6.1 7.3-8.8 10.5l-15.3 18.2-10.9-1.1 29.2-33.2-20.7-36.6 10.3 1 10.6 19.8c1.8 3.4 3.2 6.4 5.2 10.6l0.6 0.1c3.1-3.7 5.3-6.4 7.9-9.4l14.2-17.3 11 1.1-27.3 31.5 22.4 38.6z" fill="#FF4040" p-id="8465"></path><path d="M762.1 354.7l-8-6.8 2.5-23.6c0.5-4.1 1.1-8.3 1.8-13.3l-0.4-0.3c-5 1.4-9.2 2.5-13.2 3.7l-22.9 6.2-8.3-7.1 42.9-10.6 3.9-41.8 7.9 6.7-2.5 22.3c-0.4 3.8-1 7.1-1.8 11.7l0.5 0.4c4.7-1.3 8-2.2 11.8-3.2l21.6-6.1 8.4 7.2-40.4 10.3-3.8 44.3z" fill="#FF4040" p-id="8466"></path></svg>